<?xml version="1.0" encoding="UTF-8" standalone="no"?>
<!-- Created with Inkscape (http://www.inkscape.org/) -->

<svg
   xmlns:dc="http://purl.org/dc/elements/1.1/"
   xmlns:cc="http://creativecommons.org/ns#"
   xmlns:rdf="http://www.w3.org/1999/02/22-rdf-syntax-ns#"
   xmlns:svg="http://www.w3.org/2000/svg"
   xmlns="http://www.w3.org/2000/svg"
   xmlns:sodipodi="http://sodipodi.sourceforge.net/DTD/sodipodi-0.dtd"
   xmlns:inkscape="http://www.inkscape.org/namespaces/inkscape"
   width="300"
   height="150"
   viewBox="0 0 79.374998 39.687501"
   version="1.1"
   id="svg5811"
   inkscape:version="0.92.3 (2405546, 2018-03-11)"
   sodipodi:docname="eggs.svg">
  <defs
     id="defs5805" />
  <sodipodi:namedview
     id="base"
     pagecolor="#ffffff"
     bordercolor="#666666"
     borderopacity="1.0"
     inkscape:pageopacity="0.0"
     inkscape:pageshadow="2"
     inkscape:zoom="1.979899"
     inkscape:cx="249.4263"
     inkscape:cy="128.40744"
     inkscape:document-units="mm"
     inkscape:current-layer="layer1"
     showgrid="false"
     inkscape:snap-grids="true"
     units="px"
     fit-margin-top="0"
     fit-margin-left="0"
     fit-margin-right="0"
     fit-margin-bottom="0"
     inkscape:window-width="1920"
     inkscape:window-height="1001"
     inkscape:window-x="-9"
     inkscape:window-y="-9"
     inkscape:window-maximized="1" />
  <metadata
     id="metadata5808">
    <rdf:RDF>
      <cc:Work
         rdf:about="">
        <dc:format>image/svg+xml</dc:format>
        <dc:type
           rdf:resource="http://purl.org/dc/dcmitype/StillImage" />
        <dc:title></dc:title>
      </cc:Work>
    </rdf:RDF>
  </metadata>
  <g
     inkscape:label="Layer 1"
     inkscape:groupmode="layer"
     id="layer1"
     transform="translate(0,-257.31246)">
    <g
       id="g10632"
       transform="matrix(0.06628822,0,0,0.05455883,24.986391,263.55056)">
      <path
         sodipodi:nodetypes="ccccc"
         inkscape:connector-curvature="0"
         id="path10510"
         d="M 432.67,379.116 C 297.187,450.796 275.132,505.541 164.855,494.907 32.522,463.399 48.276,346.82 6.135,166.045 -36.401,-15.124 149.495,-34.029 339.723,75.46 496.867,165.651 567.759,307.436 432.67,379.116 Z"
         style="fill:#f2f2f2" />
      <path
         id="path10512"
         d="m 236.141,157.38 c 52.382,0 94.523,42.142 94.523,94.523 0,52.381 -42.142,94.523 -94.523,94.523 -52.381,0 -94.523,-42.142 -94.523,-94.523 0,-51.987 42.535,-94.523 94.523,-94.523 z"
         style="fill:#efc75e"
         inkscape:connector-curvature="0" />
      <path
         id="path10514"
         d="m 259.772,204.642 c 12.997,0 23.631,10.634 23.631,23.631 0,12.997 -10.634,23.631 -23.631,23.631 -12.997,0 -23.631,-10.634 -23.631,-23.631 0,-12.997 10.634,-23.631 23.631,-23.631 z"
         style="fill:#f4d88f"
         inkscape:connector-curvature="0" />
      <path
         sodipodi:nodetypes="sscsscs"
         inkscape:connector-curvature="0"
         id="path10516"
         d="m 251.895,330.673 c -52.382,0 -94.523,-42.142 -94.523,-94.523 0,-22.055 7.483,-42.535 20.48,-58.289 -22.055,17.329 -36.234,44.111 -36.234,74.043 0,52.382 42.142,94.523 94.523,94.523 29.932,0 58.17599,-14.178 75.11099,-36.234 -15.754,12.997 -37.30199,20.48 -59.35699,20.48 z"
         style="fill:#dcb757" />
      <g
         id="g10518">
</g>
      <g
         id="g10520">
</g>
      <g
         id="g10522">
</g>
      <g
         id="g10524">
</g>
      <g
         id="g10526">
</g>
      <g
         id="g10528">
</g>
      <g
         id="g10530">
</g>
      <g
         id="g10532">
</g>
      <g
         id="g10534">
</g>
      <g
         id="g10536">
</g>
      <g
         id="g10538">
</g>
      <g
         id="g10540">
</g>
      <g
         id="g10542">
</g>
      <g
         id="g10544">
</g>
      <g
         id="g10546">
</g>
      <g
         inkscape:label="shade"
         id="layer1-3" />
      <path
         sodipodi:nodetypes="ccccccc"
         inkscape:connector-curvature="0"
         id="path10562"
         d="M 1.0889292,133.94848 11.327738,290.37434 c 21.145112,198.61301 136.688052,315.6663 397.981212,120.82921 0,0 87.08812,-55.92932 93.88476,-123.89575 0,0 -2.88527,58.19487 -117.29542,117.47669 C 343.37354,424.34294 146.12783,608.3062 53.617962,390.81362 19.235431,284.22695 27.223232,219.90972 1.0889292,133.94848 Z"
         style="fill:#e6e6e6;stroke:#e6e6e6;stroke-width:1px;stroke-linecap:butt;stroke-linejoin:miter;stroke-opacity:1" />
      <path
         inkscape:connector-curvature="0"
         id="path10578"
         d="M 37.929312,332.49925 C 32.879306,310.59248 29.054101,290.36391 24.617254,262.102 c -2.498381,-15.91423 -3.346004,-21.54306 -3.2758,-21.75367 0.08436,-0.25309 1.468341,7.38137 6.578836,36.29093 5.296446,29.96147 7.03101,39.43031 9.436219,51.51152 1.377582,6.91951 1.660367,9.06628 0.572803,4.34847 z"
         style="fill:#e6e6e6;fill-opacity:1;fill-rule:nonzero;stroke-width:0.18879564" />
      <path
         inkscape:connector-curvature="0"
         id="path10580"
         d="M 74.094621,464.10827 C 50.740072,437.66259 33.407675,401.53747 22.057765,355.65024 17.511264,337.26891 13.934751,317.0802 11.472131,295.89642 11.164317,293.24856 9.5972338,274.60027 7.989724,254.45578 6.3822143,234.31128 5.0167057,217.38339 4.9552604,216.83824 l -0.1117188,-0.99117 h 6.2288404 6.22884 l 0.109592,0.51919 c 0.189606,0.89825 2.339868,14.2029 2.646971,16.37802 0.869043,6.15515 1.340632,8.92165 1.486151,8.71825 0.09606,-0.13427 0.126748,-0.0193 0.07741,0.29015 -0.04496,0.28193 -0.02038,0.53681 0.05462,0.56639 0.147455,0.0582 1.006147,4.60441 2.916417,15.44063 0.668134,3.79007 1.47783,8.33533 1.79932,10.10057 0.749493,4.1153 1.120961,6.18319 1.322667,7.36303 0.209512,1.22548 3.082766,17.36126 3.681207,20.67312 0.253302,1.40181 0.810456,4.50277 1.238122,6.89104 1.119922,6.25413 2.999525,16.26971 4.322569,23.03307 0.629692,3.21896 1.270147,6.80027 1.423234,7.95846 0.153086,1.1582 0.625396,3.45206 1.049573,5.09749 0.424179,1.64542 1.323507,5.15811 1.998506,7.80597 4.301986,16.87564 11.34176,40.67668 13.597334,45.97173 9.02833,21.19441 21.211271,41.67532 33.570942,56.43655 4.138004,4.94205 10.782576,11.86719 14.917963,15.54785 l 1.31895,1.17391 -14.629045,-0.0142 -14.629041,-0.0142 -1.480058,-1.67593 z M 33.13023,310.20949 c -0.06027,-0.15061 -0.105004,-0.10587 -0.114063,0.11406 -0.0082,0.19902 0.03642,0.31053 0.09916,0.2478 0.06273,-0.0627 0.06944,-0.22558 0.0149,-0.36186 z"
         style="fill:#e6e6e6;fill-opacity:1;fill-rule:nonzero;stroke-width:0.18879564" />
    </g>
  </g>
  <style
     id="style7292"
     type="text/css">
	.st0{fill:#C85629;}
	.st1{fill:#F26929;}
	.st2{fill:#F6936F;}
	.st3{fill:#D75527;}
	.st4{fill:#ED9F7C;}
</style>
  <style
     id="style7469"
     type="text/css">
	.st0{fill:#EFCE48;}
	.st1{fill:#EBD784;}
	.st2{fill:#FFF0B5;}
	.st3{fill:#FEE581;}
</style>
  <style
     id="style7981"
     type="text/css">
	.st0{fill:#815443;}
	.st1{fill:#96614F;}
	.st2{fill:#B1694F;}
	.st3{fill:#F4B6A1;}
	.st4{fill:#884832;}
	.st5{fill:#CD7B5E;}
</style>
</svg>
