<?xml version="1.0" encoding="iso-8859-1"?>
<!-- Generator: Adobe Illustrator 19.0.0, SVG Export Plug-In . SVG Version: 6.00 Build 0)  -->
<svg version="1.1" id="Capa_1" xmlns="http://www.w3.org/2000/svg" xmlns:xlink="http://www.w3.org/1999/xlink" x="0px" y="0px"
	 viewBox="0 0 482.304 482.304" style="enable-background:new 0 0 482.304 482.304;" xml:space="preserve">
<path style="fill:#607D8B;" d="M482.304,283.904c-15.712,3.264-32.544,5.248-50.304,5.248c-79.52,0-144-35.808-144-80H0v64
	c0,88.352,114.624,160,256,160c98.368,0,183.488-34.752,226.304-85.6L482.304,283.904L482.304,283.904z"/>
<path style="fill:#EF5350;" d="M432,289.152c-79.52,0-144-35.808-144-80s64.48-80,144-80c17.76,0,34.592,2.016,50.304,5.312
	C439.36,83.744,354.176,49.152,256,49.152c-141.376,0-256,71.648-256,160s114.624,160,256,160
	c98.176,0,183.36-34.592,226.304-85.312C466.592,287.136,449.76,289.152,432,289.152z"/>
<path style="fill:#D32F2F;" d="M288,209.152c0,11.616,4.672,22.592,12.704,32.576c21.92-28.48,72-48.576,131.296-48.576
	c17.76,0,34.592,2.016,50.304,5.312v-64c-15.712-3.296-32.544-5.312-50.304-5.312C352.48,129.152,288,164.96,288,209.152z"/>
<g>
	<ellipse style="fill:#ECEFF1;" cx="112" cy="209.152" rx="48" ry="32"/>
	<path style="fill:#ECEFF1;" d="M288,209.152c0-5.472,1.024-10.816,2.912-16H1.28C0.448,198.4,0,203.744,0,209.152
		s0.448,10.752,1.28,16h289.6C289.024,219.968,288,214.624,288,209.152z"/>
</g>
<g>
</g>
<g>
</g>
<g>
</g>
<g>
</g>
<g>
</g>
<g>
</g>
<g>
</g>
<g>
</g>
<g>
</g>
<g>
</g>
<g>
</g>
<g>
</g>
<g>
</g>
<g>
</g>
<g>
</g>
</svg>
